<svg width="1200" height="630" viewBox="0 0 680 380" role="img" xmlns="http://www.w3.org/2000/svg">
  <title>Karan Rao — Senior Business Analyst Portfolio</title>
  <desc>Professional portfolio thumbnail for Karan Rao, Senior Business Analyst</desc>

  <defs>
    <clipPath id="clip">
      <rect width="680" height="380" rx="16"/>
    </clipPath>
  </defs>

  <g clip-path="url(#clip)">
    <rect width="680" height="380" fill="#0a1628"/>
    <circle cx="560" cy="190" r="280" fill="none" stroke="rgba(255,255,255,0.04)" stroke-width="1"/>
    <circle cx="560" cy="190" r="210" fill="none" stroke="rgba(255,255,255,0.05)" stroke-width="1"/>
    <circle cx="560" cy="190" r="140" fill="none" stroke="rgba(13,158,117,0.12)" stroke-width="1"/>
    <circle cx="560" cy="190" r="70"  fill="none" stroke="rgba(13,158,117,0.15)" stroke-width="1.5"/>
    <line x1="0" y1="0" x2="680" y2="380" stroke="rgba(255,255,255,0.025)" stroke-width="1"/>
    <line x1="80" y1="0" x2="760" y2="380" stroke="rgba(255,255,255,0.02)" stroke-width="1"/>
    <line x1="0" y1="80" x2="600" y2="380" stroke="rgba(255,255,255,0.02)" stroke-width="1"/>
    <polygon points="600,0 680,0 680,100" fill="rgba(13,158,117,0.08)"/>
    <polygon points="0,300 0,380 80,380" fill="rgba(13,158,117,0.05)"/>
    <path d="M 640 0 Q 720 160 640 320" stroke="rgba(13,158,117,0.18)" stroke-width="2" fill="none"/>
    <g fill="rgba(255,255,255,0.06)">
      <circle cx="60" cy="60" r="1.5"/><circle cx="60" cy="100" r="1.5"/><circle cx="60" cy="140" r="1.5"/>
      <circle cx="100" cy="60" r="1.5"/><circle cx="100" cy="100" r="1.5"/><circle cx="100" cy="140" r="1.5"/>
      <circle cx="140" cy="60" r="1.5"/><circle cx="140" cy="100" r="1.5"/><circle cx="140" cy="140" r="1.5"/>
    </g>
    <circle cx="580" cy="60" r="4" fill="rgba(13,158,117,0.5)"/>
    <circle cx="620" cy="290" r="3" fill="rgba(13,158,117,0.4)"/>
    <circle cx="500" cy="340" r="5" fill="rgba(13,158,117,0.15)"/>
    <rect x="48" y="100" width="4" height="56" rx="2" fill="#0d9e75"/>
    <circle cx="76" cy="76" r="28" fill="#0d9e75" opacity="0.2"/>
    <circle cx="76" cy="76" r="22" fill="#0d9e75" opacity="0.35"/>
    <text x="76" y="82" text-anchor="middle" font-family="Georgia, serif" font-size="16" font-weight="700" fill="#ffffff">KR</text>
    <text x="116" y="66" font-family="Georgia, serif" font-size="34" font-weight="700" fill="#ffffff" letter-spacing="-1">Karan Rao</text>
    <text x="117" y="89" font-family="Arial, sans-serif" font-size="13" fill="rgba(255,255,255,0.45)" letter-spacing="1.5">SENIOR BUSINESS ANALYST  ·  AGILE DELIVERY</text>
    <rect x="48" y="170" width="584" height="0.75" fill="rgba(255,255,255,0.08)"/>
    <rect x="116" y="97" width="48" height="2" rx="1" fill="#0d9e75"/>
    <rect x="48" y="188" width="130" height="70" rx="10" fill="rgba(255,255,255,0.05)" stroke="rgba(255,255,255,0.09)" stroke-width="0.75"/>
    <text x="63" y="216" font-family="Georgia, serif" font-size="26" font-weight="700" fill="#5ddbb8">7+</text>
    <text x="63" y="234" font-family="Arial, sans-serif" font-size="10" fill="rgba(255,255,255,0.35)" letter-spacing="0.5">YRS EXPERIENCE</text>
    <text x="63" y="248" font-family="Arial, sans-serif" font-size="10" fill="rgba(255,255,255,0.35)" letter-spacing="0.5">IN INDUSTRY</text>
    <rect x="192" y="188" width="130" height="70" rx="10" fill="rgba(255,255,255,0.05)" stroke="rgba(255,255,255,0.09)" stroke-width="0.75"/>
    <text x="207" y="216" font-family="Georgia, serif" font-size="26" font-weight="700" fill="#5ddbb8">3</text>
    <text x="207" y="234" font-family="Arial, sans-serif" font-size="10" fill="rgba(255,255,255,0.35)" letter-spacing="0.5">INDUSTRY</text>
    <text x="207" y="248" font-family="Arial, sans-serif" font-size="10" fill="rgba(255,255,255,0.35)" letter-spacing="0.5">DOMAINS</text>
    <rect x="336" y="188" width="130" height="70" rx="10" fill="rgba(13,158,117,0.12)" stroke="rgba(13,158,117,0.25)" stroke-width="0.75"/>
    <text x="351" y="216" font-family="Georgia, serif" font-size="18" font-weight="700" fill="#5ddbb8">PSPO I</text>
    <text x="351" y="234" font-family="Arial, sans-serif" font-size="10" fill="rgba(93,219,184,0.5)" letter-spacing="0.5">CERTIFIED</text>
    <text x="351" y="248" font-family="Arial, sans-serif" font-size="10" fill="rgba(93,219,184,0.5)" letter-spacing="0.5">SCRUM.ORG</text>
    <rect x="480" y="188" width="152" height="70" rx="10" fill="rgba(255,255,255,0.05)" stroke="rgba(255,255,255,0.09)" stroke-width="0.75"/>
    <text x="495" y="212" font-family="Arial, sans-serif" font-size="10" fill="rgba(255,255,255,0.35)" letter-spacing="0.5">LOCATION</text>
    <text x="495" y="230" font-family="Arial, sans-serif" font-size="13" font-weight="600" fill="rgba(255,255,255,0.75)">Pune, India</text>
    <text x="495" y="249" font-family="Arial, sans-serif" font-size="10" fill="rgba(255,255,255,0.3)">krao1502@gmail.com</text>
    <rect x="48" y="278" width="108" height="24" rx="12" fill="rgba(13,158,117,0.15)" stroke="rgba(13,158,117,0.3)" stroke-width="0.75"/>
    <text x="102" y="294" text-anchor="middle" font-family="Arial, sans-serif" font-size="10" fill="#5ddbb8" letter-spacing="0.3">Healthcare IT</text>
    <rect x="166" y="278" width="104" height="24" rx="12" fill="rgba(255,255,255,0.06)" stroke="rgba(255,255,255,0.1)" stroke-width="0.75"/>
    <text x="218" y="294" text-anchor="middle" font-family="Arial, sans-serif" font-size="10" fill="rgba(255,255,255,0.55)" letter-spacing="0.3">Banking &amp; FinServ</text>
    <rect x="280" y="278" width="82" height="24" rx="12" fill="rgba(255,255,255,0.06)" stroke="rgba(255,255,255,0.1)" stroke-width="0.75"/>
    <text x="321" y="294" text-anchor="middle" font-family="Arial, sans-serif" font-size="10" fill="rgba(255,255,255,0.55)" letter-spacing="0.3">Agile / Scrum</text>
    <rect x="372" y="278" width="60" height="24" rx="12" fill="rgba(255,255,255,0.06)" stroke="rgba(255,255,255,0.1)" stroke-width="0.75"/>
    <text x="402" y="294" text-anchor="middle" font-family="Arial, sans-serif" font-size="10" fill="rgba(255,255,255,0.55)" letter-spacing="0.3">HIPAA</text>
    <rect x="442" y="278" width="118" height="24" rx="12" fill="rgba(255,255,255,0.06)" stroke="rgba(255,255,255,0.1)" stroke-width="0.75"/>
    <text x="501" y="294" text-anchor="middle" font-family="Arial, sans-serif" font-size="10" fill="rgba(255,255,255,0.55)" letter-spacing="0.3">Data Migration</text>
    <rect x="48" y="322" width="584" height="0.75" fill="rgba(255,255,255,0.07)"/>
    <text x="48" y="348" font-family="Arial, sans-serif" font-size="10" fill="rgba(255,255,255,0.25)" letter-spacing="0.5">TOOLS</text>
    <text x="96" y="348" font-family="Arial, sans-serif" font-size="10" fill="rgba(255,255,255,0.45)">JIRA  ·  Confluence  ·  Tableau  ·  Power BI  ·  Azure DevOps  ·  Oracle SQL  ·  Postman</text>
    <text x="632" y="348" text-anchor="end" font-family="Arial, sans-serif" font-size="10" fill="rgba(13,158,117,0.6)">linkedin.com/in/karan-rao-05b297150</text>
  </g>
</svg>
